<?xml version="1.0" encoding="UTF-8"?> <svg xmlns="http://www.w3.org/2000/svg" xmlns:xlink="http://www.w3.org/1999/xlink" id="Layer_1" data-name="Layer 1" width="400" height="278.6606" viewBox="0 0 400 278.6606"><defs><style>.cls-1,.cls-10,.cls-11,.cls-12,.cls-13,.cls-14,.cls-15,.cls-16,.cls-17,.cls-18,.cls-19,.cls-2,.cls-20,.cls-21,.cls-22,.cls-23,.cls-24,.cls-25,.cls-26,.cls-27,.cls-28,.cls-29,.cls-3,.cls-30,.cls-31,.cls-32,.cls-33,.cls-34,.cls-35,.cls-36,.cls-37,.cls-38,.cls-39,.cls-4,.cls-40,.cls-41,.cls-42,.cls-43,.cls-44,.cls-45,.cls-46,.cls-5,.cls-6,.cls-7,.cls-8,.cls-9{fill:none;}.cls-2{clip-path:url(#clip-path);}.cls-3{clip-path:url(#clip-path-2);}.cls-4{clip-path:url(#clip-path-45);}.cls-5{clip-path:url(#clip-path-3);}.cls-6{clip-path:url(#clip-path-4);}.cls-7{clip-path:url(#clip-path-5);}.cls-8{clip-path:url(#clip-path-6);}.cls-9{clip-path:url(#clip-path-7);}.cls-10{clip-path:url(#clip-path-8);}.cls-11{clip-path:url(#clip-path-9);}.cls-12{clip-path:url(#clip-path-10);}.cls-13{clip-path:url(#clip-path-11);}.cls-14{clip-path:url(#clip-path-12);}.cls-15{clip-path:url(#clip-path-13);}.cls-16{clip-path:url(#clip-path-14);}.cls-17{clip-path:url(#clip-path-15);}.cls-18{clip-path:url(#clip-path-16);}.cls-19{clip-path:url(#clip-path-17);}.cls-20{clip-path:url(#clip-path-18);}.cls-21{clip-path:url(#clip-path-19);}.cls-22{clip-path:url(#clip-path-20);}.cls-23{clip-path:url(#clip-path-21);}.cls-24{clip-path:url(#clip-path-22);}.cls-25{clip-path:url(#clip-path-23);}.cls-26{clip-path:url(#clip-path-24);}.cls-27{clip-path:url(#clip-path-25);}.cls-28{clip-path:url(#clip-path-26);}.cls-29{clip-path:url(#clip-path-27);}.cls-30{clip-path:url(#clip-path-28);}.cls-31{clip-path:url(#clip-path-29);}.cls-32{clip-path:url(#clip-path-30);}.cls-33{clip-path:url(#clip-path-31);}.cls-34{clip-path:url(#clip-path-32);}.cls-35{clip-path:url(#clip-path-33);}.cls-36{clip-path:url(#clip-path-34);}.cls-37{clip-path:url(#clip-path-35);}.cls-38{clip-path:url(#clip-path-36);}.cls-39{clip-path:url(#clip-path-37);}.cls-40{clip-path:url(#clip-path-38);}.cls-41{clip-path:url(#clip-path-39);}.cls-42{clip-path:url(#clip-path-40);}.cls-43{clip-path:url(#clip-path-41);}.cls-44{clip-path:url(#clip-path-42);}.cls-45{clip-path:url(#clip-path-43);}.cls-46{clip-path:url(#clip-path-44);}.cls-47{clip-path:url(#clip-path-46);}.cls-48{fill:#fff;}</style><clipPath id="clip-path"><path class="cls-1" d="M194.7174,0H139.9156V131.4889H260.0844V0Zm62.6757,128.8734H194.6217V92.93a43.8205,43.8205,0,0,1-7.6438-.6875V53.573h-4.8828V91.0606a45.5134,45.5134,0,0,1-7.29-2.9963V53.573h-4.8833V85.0881a46.0786,46.0786,0,0,1-7.2884-6.5076V53.573h-4.8845V71.9518A43.0359,43.0359,0,0,1,194.6217,6.9112V2.69h62.7714Z"></path></clipPath><clipPath id="clip-path-2"><rect class="cls-4" x="340.7578" y="180.11" width="9.9771" height="10.3338"></rect></clipPath><clipPath id="clip-path-3"><rect class="cls-3" x="311.6004" y="180.11" width="9.9771" height="10.3338"></rect></clipPath><clipPath id="clip-path-4"><path class="cls-5" d="M394.5563,182.777l-19.0188,19.7578-.9474-.91.9444.9123-11.4879,11.8971,1.1443,1.2856,11.7168-12.1277-.0026.0034,19.0133-19.7638c-.4237-.3365-.9085-.7243-1.342-1.0412Z"></path></clipPath><clipPath id="clip-path-5"><polygon class="cls-6" points="243.492 180.11 210.611 180.107 210.611 188.815 243.479 188.815 243.492 180.11"></polygon></clipPath><clipPath id="clip-path-6"><rect class="cls-7" x="210.611" y="221.9355" width="32.8695" height="8.7056"></rect></clipPath><clipPath id="clip-path-7"><path class="cls-8" d="M5.5278,230.78h8.4134v-11.118A21.2652,21.2652,0,0,1,5.54,215.6465Z"></path></clipPath><clipPath id="clip-path-8"><path class="cls-9" d="M5.5175,180.11v1.96a20.9557,20.9557,0,0,1,2.9668-1.96Z"></path></clipPath><clipPath id="clip-path-9"><path class="cls-10" d="M2.901,213.165A22.4461,22.4461,0,0,1,0,209.12v21.66H2.8967L2.9,213.1931l.0013-.0136Z"></path></clipPath><clipPath id="clip-path-10"><path class="cls-11" d="M2.901,184.5136V180.11H0v8.4681a22.4649,22.4649,0,0,1,2.901-4.0474v-.0171Z"></path></clipPath><clipPath id="clip-path-11"><path class="cls-12" d="M18.7557,217.5891a18.74,18.74,0,1,0-.0029-37.4791v-.0034a18.589,18.589,0,0,0-2.1959.1316v37.2193A18.5556,18.5556,0,0,0,18.7557,217.5891Z"></path></clipPath><clipPath id="clip-path-12"><path class="cls-2" d="M237.7,49.9194A43,43,0,0,0,194.6917,6.9083V92.93A42.9947,42.9947,0,0,0,237.7,49.9194Z"></path></clipPath><clipPath id="clip-path-13"><path class="cls-13" d="M13.9139,216.9552l-.0026-36.2147a19.0054,19.0054,0,0,0-8.3938,4.8375v26.5456A18.5808,18.5808,0,0,0,13.9139,216.9552Z"></path></clipPath><clipPath id="clip-path-14"><path class="cls-15" d="M2.901,208.8271V188.872a18.7018,18.7018,0,0,0,0,19.9551Z"></path></clipPath><clipPath id="clip-path-15"><rect class="cls-16" x="336.4414" y="180.11" width="1.6867" height="50.6702"></rect></clipPath><clipPath id="clip-path-16"><polygon class="cls-17" points="324.197 191.773 324.197 230.78 329.859 230.78 329.859 180.11 324.197 180.11 324.197 191.773"></polygon></clipPath><clipPath id="clip-path-17"><path class="cls-18" d="M98.6232,205.4469h0a25.2366,25.2366,0,0,0,14.7506,23.2516V182.1662A25.2689,25.2689,0,0,0,98.6232,205.4469Z"></path></clipPath><clipPath id="clip-path-18"><path class="cls-19" d="M140.0326,223.3561a26.0927,26.0927,0,0,0,.0008-35.8475,23.8361,23.8361,0,0,0-13.1451-7.0569V230.41A23.8682,23.8682,0,0,0,140.0326,223.3561Z"></path></clipPath><clipPath id="clip-path-19"><path class="cls-20" d="M115.9908,229.6826a23.9059,23.9059,0,0,0,2.7622.6876V180.4944a24.4568,24.4568,0,0,0-2.7622.6851Z"></path></clipPath><clipPath id="clip-path-20"><path class="cls-21" d="M124.2731,180.1493c-.4972-.0247-.964-.0427-1.4108-.0427-.4861,0-.9973.0205-1.4936.0513V230.706c.4963.0316.9683.0461,1.45.0487.4617,0,.9576-.0137,1.4548-.0427Z"></path></clipPath><clipPath id="clip-path-21"><polygon class="cls-22" points="193.414 180.255 179.499 180.266 179.481 211.037 193.414 211.037 193.414 180.255"></polygon></clipPath><clipPath id="clip-path-22"><path class="cls-23" d="M179.4726,230.196a18.29,18.29,0,0,0,7.5288-3.9278l-.003.0085a18.2545,18.2545,0,0,0,6.3594-12.6214H179.4726Z"></path></clipPath><clipPath id="clip-path-23"><polygon class="cls-14" points="56.402 257.25 60.4 257.25 65.423 272.859 70.596 257.193 73.723 257.193 78.895 272.859 83.915 257.25 87.796 257.25 80.461 278.452 77.272 278.452 72.096 263.325 66.927 278.452 63.738 278.452 56.402 257.25"></polygon></clipPath><clipPath id="clip-path-24"><path class="cls-24" d="M174.9173,230.78a19.3618,19.3618,0,0,0,1.9348-.12l-.0158-17.002-1.9634-.0085v17.13Z"></path></clipPath><clipPath id="clip-path-25"><path class="cls-26" d="M278.0517,211.2113,265.101,224.1659a25.1691,25.1691,0,0,0,33.2305.451l-2.4286-2.43-14.4141-14.4153Z"></path></clipPath><clipPath id="clip-path-26"><path class="cls-27" d="M256.7555,205.3777v.2289l-.0086-.0119A25.1945,25.1945,0,0,0,263.24,222.31l16.3912-16.398-16.8329-16.84a25.2729,25.2729,0,0,0-6.0424,16.2033Z"></path></clipPath><clipPath id="clip-path-27"><path class="cls-28" d="M281.9782,180.21a25.158,25.158,0,0,0-14.5238,4.6086L284.09,201.4559l14.7536-14.7545A25.0993,25.0993,0,0,0,281.9782,180.21Z"></path></clipPath><clipPath id="clip-path-28"><polygon class="cls-29" points="75.092 219.172 75.066 219.172 67.302 212.412 67.302 217.255 67.373 217.261 67.373 217.338 67.373 230.567 88.262 230.567 75.289 219.303 75.256 219.317 75.092 219.172"></polygon></clipPath><clipPath id="clip-path-29"><polygon class="cls-30" points="51.237 180.11 51.237 194.896 64.753 206.636 64.753 180.11 51.237 180.11"></polygon></clipPath><clipPath id="clip-path-30"><path class="cls-31" d="M51.2255,209.5507v21.09H64.7529V219.5316c-.566-.1315-1.0837-.2827-1.6107-.4536l.0021.0026a21.3426,21.3426,0,0,1-11.0363-8.1717l-.0022.006C51.7962,210.469,51.5014,210.0188,51.2255,209.5507Z"></path></clipPath><clipPath id="clip-path-31"><path class="cls-32" d="M51.2366,202.2264a18.5516,18.5516,0,0,0,3.0377,7.1791L54.27,209.4a19.0431,19.0431,0,0,0,9.6778,7.1773h.0209a6.9467,6.9467,0,0,0,.7154.2136v-6.6691l-13.4475-11.669Z"></path></clipPath><clipPath id="clip-path-32"><path class="cls-33" d="M68.9946,180.0921l-.0025-.01-1.6321.0137v28.8768l8.504,7.4012a18.68,18.68,0,0,0-6.227-36.2917C69.4252,180.0818,69.21,180.0835,68.9946,180.0921Z"></path></clipPath><clipPath id="clip-path-33"><path class="cls-34" d="M359.8711,201.6557a22.45,22.45,0,0,0,2.6439,10.58l11.1286-11.5264,18.5738-19.293a22.5154,22.5154,0,0,0-32.3463,20.2395Z"></path></clipPath><clipPath id="clip-path-34"><path class="cls-25" d="M118.8743,257.0987h3.4289l9.2634,21.2057h-3.9081l-2.1391-5.0862h-9.9519l-2.1655,5.0862h-3.7877Zm5.2928,12.8409-3.64-8.4168-3.6066,8.4168Z"></path></clipPath><clipPath id="clip-path-35"><path class="cls-35" d="M363.819,228.95a22.51,22.51,0,0,0,30.6647-31.789L382.89,209.2v.0026Z"></path></clipPath><clipPath id="clip-path-36"><path class="cls-37" d="M393.6594,194.223,400,187.6368l-.2127-.2136-1.9041-1.84L378.802,205.4178l-.003.0026-19.2243,19.9013c.1849.2025.3763.4015.5689.6039.2208.2256.4493.4571.68.6826l-.0043-.006.0145.0111.041.0427.1457.1256c.114.0974.26.2229.4194.3562l.258.223,19.2991-19.98Z"></path></clipPath><clipPath id="clip-path-37"><rect class="cls-38" x="227.1713" y="201.0971" width="16.278" height="8.6646"></rect></clipPath><clipPath id="clip-path-38"><polygon class="cls-39" points="210.611 191.448 210.611 209.762 224.482 209.762 224.482 199.77 224.482 198.467 224.482 191.45 210.611 191.448"></polygon></clipPath><clipPath id="clip-path-39"><path class="cls-40" d="M172.2521,230.5548V213.6553H156.5959A18.4688,18.4688,0,0,0,172.2521,230.5548Z"></path></clipPath><clipPath id="clip-path-40"><path class="cls-41" d="M264.5961,187.1576l17.8212,17.8237,17.9067,17.9075.7389-.7389-17.9041-17.9067-17.7921-17.79C265.107,186.6817,264.8486,186.9184,264.5961,187.1576Z"></path></clipPath><clipPath id="clip-path-41"><polygon class="cls-36" points="160.182 260.679 153.506 260.679 153.506 257.25 170.587 257.25 170.587 260.679 163.91 260.679 163.91 278.304 160.182 278.304 160.182 260.679"></polygon></clipPath><clipPath id="clip-path-42"><path class="cls-43" d="M194.9647,267.8373v-.0623A10.65,10.65,0,0,1,205.8178,256.89a10.9647,10.9647,0,0,1,8.2413,3.2778l-2.3743,2.7353a8.3812,8.3812,0,0,0-5.8931-2.6157c-4.0328,0-6.9475,3.3084-6.9475,7.4268v.0606c0,4.1209,2.9147,7.4909,6.9475,7.4909,2.5846,0,4.2388-1.0491,6.0413-2.7379l2.3786,2.4047a10.871,10.871,0,0,1-8.5424,3.7279A10.5844,10.5844,0,0,1,194.9647,267.8373Z"></path></clipPath><clipPath id="clip-path-43"><polygon class="cls-44" points="240.628 257.25 244.329 257.25 244.329 266.001 254.372 266.001 254.372 257.25 258.073 257.25 258.073 278.304 254.372 278.304 254.372 269.432 244.329 269.432 244.329 278.304 240.628 278.304 240.628 257.25"></polygon></clipPath><clipPath id="clip-path-44"><polygon class="cls-45" points="286.024 257.25 301.634 257.25 301.634 260.558 289.723 260.558 289.723 266.031 300.277 266.031 300.277 269.341 289.723 269.341 289.723 274.992 301.786 274.992 301.786 278.304 286.024 278.304 286.024 257.25"></polygon></clipPath><clipPath id="clip-path-45"><path class="cls-46" d="M327.3031,275.2317l2.2236-2.6439a9.7039,9.7039,0,0,0,6.646,2.7353c2.286,0,3.73-1.0524,3.73-2.6464v-.0607c0-1.5009-.8431-2.3142-4.75-3.2188-4.4831-1.0806-7.01-2.4013-7.01-6.28v-.0623c0-3.6084,3.01-6.1036,7.1893-6.1036a11.6414,11.6414,0,0,1,7.6352,2.6464l-1.9827,2.7951a9.5725,9.5725,0,0,0-5.7123-2.1646c-2.1681,0-3.429,1.1147-3.429,2.4986v.0564c0,1.6231.9619,2.3475,4.9922,3.3059,4.4464,1.0841,6.7639,2.6789,6.7639,6.1728v.0538c0,3.938-3.0966,6.2855-7.5173,6.2855A12.9533,12.9533,0,0,1,327.3031,275.2317Z"></path></clipPath><clipPath id="clip-path-46"><rect class="cls-42" x="332.4777" y="180.11" width="1.3659" height="50.6702"></rect></clipPath></defs><title>projects-logo-white-vert-2</title><g class="cls-47"><rect x="-19.0607" y="-19.4359" width="437.3723" height="317.5323"></rect></g><path class="cls-48" d="M194.7174,0H139.9156V131.4889H260.0844V0Zm62.6757,128.8734H194.6217V92.93a43.8205,43.8205,0,0,1-7.6438-.6875V53.573h-4.8828V91.0606a45.5134,45.5134,0,0,1-7.29-2.9963V53.573h-4.8833V85.0881a46.0786,46.0786,0,0,1-7.2884-6.5076V53.573h-4.8845V71.9518A43.0359,43.0359,0,0,1,194.6217,6.9112V2.69h62.7714Z"></path><path class="cls-48" d="M237.7,49.9194A43,43,0,0,0,194.6917,6.9083V92.93A42.9947,42.9947,0,0,0,237.7,49.9194Z"></path><polygon class="cls-48" points="56.402 257.25 60.4 257.25 65.423 272.859 70.596 257.193 73.723 257.193 78.895 272.859 83.915 257.25 87.796 257.25 80.461 278.452 77.272 278.452 72.096 263.325 66.927 278.452 63.738 278.452 56.402 257.25"></polygon><path class="cls-48" d="M118.8743,257.0987h3.4289l9.2634,21.2057h-3.9081l-2.1391-5.0862h-9.9519l-2.1655,5.0862h-3.7877Zm5.2928,12.8409-3.64-8.4168-3.6066,8.4168Z"></path><polygon class="cls-48" points="160.182 260.679 153.506 260.679 153.506 257.25 170.587 257.25 170.587 260.679 163.91 260.679 163.91 278.304 160.182 278.304 160.182 260.679"></polygon><path class="cls-48" d="M194.9647,267.8373v-.0623A10.65,10.65,0,0,1,205.8178,256.89a10.9647,10.9647,0,0,1,8.2413,3.2778l-2.3743,2.7353a8.3812,8.3812,0,0,0-5.8931-2.6157c-4.0328,0-6.9475,3.3084-6.9475,7.4268v.0606c0,4.1209,2.9147,7.4909,6.9475,7.4909,2.5846,0,4.2388-1.0491,6.0413-2.7379l2.3786,2.4047a10.871,10.871,0,0,1-8.5424,3.7279A10.5844,10.5844,0,0,1,194.9647,267.8373Z"></path><polygon class="cls-48" points="240.628 257.25 244.329 257.25 244.329 266.001 254.372 266.001 254.372 257.25 258.073 257.25 258.073 278.304 254.372 278.304 254.372 269.432 244.329 269.432 244.329 278.304 240.628 278.304 240.628 257.25"></polygon><polygon class="cls-48" points="286.024 257.25 301.634 257.25 301.634 260.558 289.723 260.558 289.723 266.031 300.277 266.031 300.277 269.341 289.723 269.341 289.723 274.992 301.786 274.992 301.786 278.304 286.024 278.304 286.024 257.25"></polygon><path class="cls-48" d="M327.3031,275.2317l2.2236-2.6439a9.7039,9.7039,0,0,0,6.646,2.7353c2.286,0,3.73-1.0524,3.73-2.6464v-.0607c0-1.5009-.8431-2.3142-4.75-3.2188-4.4831-1.0806-7.01-2.4013-7.01-6.28v-.0623c0-3.6084,3.01-6.1036,7.1893-6.1036a11.6414,11.6414,0,0,1,7.6352,2.6464l-1.9827,2.7951a9.5725,9.5725,0,0,0-5.7123-2.1646c-2.1681,0-3.429,1.1147-3.429,2.4986v.0564c0,1.6231.9619,2.3475,4.9922,3.3059,4.4464,1.0841,6.7639,2.6789,6.7639,6.1728v.0538c0,3.938-3.0966,6.2855-7.5173,6.2855A12.9533,12.9533,0,0,1,327.3031,275.2317Z"></path><rect class="cls-48" x="340.7578" y="180.11" width="9.9771" height="10.3338"></rect><rect class="cls-48" x="311.6004" y="180.11" width="9.9771" height="10.3338"></rect><path class="cls-48" d="M394.5563,182.777l-19.0188,19.7578-.9474-.91.9444.9123-11.4879,11.8971,1.1443,1.2856,11.7168-12.1277-.0026.0034,19.0133-19.7638c-.4237-.3365-.9085-.7243-1.342-1.0412Z"></path><polygon class="cls-48" points="243.492 180.11 210.611 180.107 210.611 188.815 243.479 188.815 243.492 180.11"></polygon><rect class="cls-48" x="210.611" y="221.9355" width="32.8695" height="8.7056"></rect><path class="cls-48" d="M5.5278,230.78h8.4134v-11.118A21.2652,21.2652,0,0,1,5.54,215.6465Z"></path><path class="cls-48" d="M5.5175,180.11v1.96a20.9557,20.9557,0,0,1,2.9668-1.96Z"></path><path class="cls-48" d="M2.901,213.165A22.4461,22.4461,0,0,1,0,209.12v21.66H2.8967L2.9,213.1931l.0013-.0136Z"></path><path class="cls-48" d="M2.901,184.5136V180.11H0v8.4681a22.4649,22.4649,0,0,1,2.901-4.0474v-.0171Z"></path><path class="cls-48" d="M18.7557,217.5891a18.74,18.74,0,1,0-.0029-37.4791v-.0034a18.589,18.589,0,0,0-2.1959.1316v37.2193A18.5556,18.5556,0,0,0,18.7557,217.5891Z"></path><path class="cls-48" d="M13.9139,216.9552l-.0026-36.2147a19.0054,19.0054,0,0,0-8.3938,4.8375v26.5456A18.5808,18.5808,0,0,0,13.9139,216.9552Z"></path><path class="cls-48" d="M2.901,208.8271V188.872a18.7018,18.7018,0,0,0,0,19.9551Z"></path><rect class="cls-48" x="336.4414" y="180.11" width="1.6867" height="50.6702"></rect><polygon class="cls-48" points="324.197 191.773 324.197 230.78 329.859 230.78 329.859 180.11 324.197 180.11 324.197 191.773"></polygon><path class="cls-48" d="M98.6232,205.4469h0a25.2366,25.2366,0,0,0,14.7506,23.2516V182.1662A25.2689,25.2689,0,0,0,98.6232,205.4469Z"></path><path class="cls-48" d="M140.0326,223.3561a26.0927,26.0927,0,0,0,.0008-35.8475,23.8361,23.8361,0,0,0-13.1451-7.0569V230.41A23.8682,23.8682,0,0,0,140.0326,223.3561Z"></path><path class="cls-48" d="M115.9908,229.6826a23.9059,23.9059,0,0,0,2.7622.6876V180.4944a24.4568,24.4568,0,0,0-2.7622.6851Z"></path><path class="cls-48" d="M124.2731,180.1493c-.4972-.0247-.964-.0427-1.4108-.0427-.4861,0-.9973.0205-1.4936.0513V230.706c.4963.0316.9683.0461,1.45.0487.4617,0,.9576-.0137,1.4548-.0427Z"></path><polygon class="cls-48" points="193.414 180.255 179.499 180.266 179.481 211.037 193.414 211.037 193.414 180.255"></polygon><path class="cls-48" d="M179.4726,230.196a18.29,18.29,0,0,0,7.5288-3.9278l-.003.0085a18.2545,18.2545,0,0,0,6.3594-12.6214H179.4726Z"></path><path class="cls-48" d="M174.9173,230.78a19.3618,19.3618,0,0,0,1.9348-.12l-.0158-17.002-1.9634-.0085v17.13Z"></path><path class="cls-48" d="M278.0517,211.2113,265.101,224.1659a25.1691,25.1691,0,0,0,33.2305.451l-2.4286-2.43-14.4141-14.4153Z"></path><path class="cls-48" d="M256.7555,205.3777v.2289l-.0086-.0119A25.1945,25.1945,0,0,0,263.24,222.31l16.3912-16.398-16.8329-16.84a25.2729,25.2729,0,0,0-6.0424,16.2033Z"></path><path class="cls-48" d="M281.9782,180.21a25.158,25.158,0,0,0-14.5238,4.6086L284.09,201.4559l14.7536-14.7545A25.0993,25.0993,0,0,0,281.9782,180.21Z"></path><polygon class="cls-48" points="75.092 219.172 75.066 219.172 67.302 212.412 67.302 217.255 67.373 217.261 67.373 217.338 67.373 230.567 88.262 230.567 75.289 219.303 75.256 219.317 75.092 219.172"></polygon><polygon class="cls-48" points="51.237 180.11 51.237 194.896 64.753 206.636 64.753 180.11 51.237 180.11"></polygon><path class="cls-48" d="M51.2255,209.5507v21.09H64.7529V219.5316c-.566-.1315-1.0837-.2827-1.6107-.4536l.0021.0026a21.3426,21.3426,0,0,1-11.0363-8.1717l-.0022.006C51.7962,210.469,51.5014,210.0188,51.2255,209.5507Z"></path><path class="cls-48" d="M51.2366,202.2264a18.5516,18.5516,0,0,0,3.0377,7.1791L54.27,209.4a19.0431,19.0431,0,0,0,9.6778,7.1773h.0209a6.9467,6.9467,0,0,0,.7154.2136v-6.6691l-13.4475-11.669Z"></path><path class="cls-48" d="M68.9946,180.0921l-.0025-.01-1.6321.0137v28.8768l8.504,7.4012a18.68,18.68,0,0,0-6.227-36.2917C69.4252,180.0818,69.21,180.0835,68.9946,180.0921Z"></path><path class="cls-48" d="M359.8711,201.6557a22.45,22.45,0,0,0,2.6439,10.58l11.1286-11.5264,18.5738-19.293a22.5154,22.5154,0,0,0-32.3463,20.2395Z"></path><path class="cls-48" d="M363.819,228.95a22.51,22.51,0,0,0,30.6647-31.789L382.89,209.2v.0026Z"></path><path class="cls-48" d="M393.6594,194.223,400,187.6368l-.2127-.2136-1.9041-1.84L378.802,205.4178l-.003.0026-19.2243,19.9013c.1849.2025.3763.4015.5689.6039.2208.2256.4493.4571.68.6826l-.0043-.006.0145.0111.041.0427.1457.1256c.114.0974.26.2229.4194.3562l.258.223,19.2991-19.98Z"></path><rect class="cls-48" x="227.1713" y="201.0971" width="16.278" height="8.6646"></rect><polygon class="cls-48" points="210.611 191.448 210.611 209.762 224.482 209.762 224.482 199.77 224.482 198.467 224.482 191.45 210.611 191.448"></polygon><path class="cls-48" d="M172.2521,230.5548V213.6553H156.5959A18.4688,18.4688,0,0,0,172.2521,230.5548Z"></path><path class="cls-48" d="M264.5961,187.1576l17.8212,17.8237,17.9067,17.9075.7389-.7389-17.9041-17.9067-17.7921-17.79C265.107,186.6817,264.8486,186.9184,264.5961,187.1576Z"></path><rect class="cls-48" x="332.4777" y="180.11" width="1.3659" height="50.6702"></rect></svg> 